<?xml version="1.0" encoding="UTF-8" standalone="no"?><!-- Generator: Gravit.io --><svg xmlns="http://www.w3.org/2000/svg" xmlns:xlink="http://www.w3.org/1999/xlink" style="isolation:isolate" viewBox="0 0 500 500" width="500pt" height="500pt"><defs><clipPath id="_clipPath_oajN25OQ3ioV1nU3tf1e8HvByncIoq2x"><rect width="500" height="500"/></clipPath></defs><g clip-path="url(#_clipPath_oajN25OQ3ioV1nU3tf1e8HvByncIoq2x)"><g><path d="M 85.83 170 L 414.18 170 C 433.607 170 449.38 185.773 449.38 205.2 L 449.38 294.8 C 449.38 314.227 433.607 330 414.18 330 L 85.83 330 C 66.403 330 50.63 314.227 50.63 294.8 L 50.63 205.2 C 50.63 185.773 66.403 170 85.83 170 Z" style="stroke:none;fill:#002233;stroke-miterlimit:10;"/><g><g clip-path="url(#_clipPath_MHQBqvldZuMMMgXhvNTzlXfaFwosNgsy)"><text transform="matrix(1,0,0,1,163.75,244.324)" style="font-family:'Lato';font-weight:700;font-size:52px;font-style:normal;fill:#d9eaf2;stroke:none;">BAYONA </text><text transform="matrix(1,0,0,1,163.75,306.724)" style="font-family:'Lato';font-weight:700;font-size:52px;font-style:normal;fill:#d9eaf2;stroke:none;">FACUNDO</text></g><defs><clipPath id="_clipPath_MHQBqvldZuMMMgXhvNTzlXfaFwosNgsy"><rect x="0" y="0" width="280" height="114" transform="matrix(1,0,0,1,163.75,193)"/></clipPath></defs><g clip-path="url(#_clipPath_2LN6bygGI7w3DGi2TNhuEkGz8ziUX71u)"><text transform="matrix(1,0,0,1,62.25,292.7)" style="font-family:'Lato';font-weight:700;font-size:100px;font-style:normal;fill:#d0eaf2;stroke:none;">://</text></g><defs><clipPath id="_clipPath_2LN6bygGI7w3DGi2TNhuEkGz8ziUX71u"><rect x="0" y="0" width="101" height="106" transform="matrix(1,0,0,1,56.25,201)"/></clipPath></defs></g></g></g></svg>